# xmcd
#
# Track frame offsets:
#	150
#	18975
#	31987
#	50575
#	75045
#	93255
#	110750
#	125112
#	142512
#	169350
#
# Disc length: 2401 seconds
#
# Revision: 1
# Processed by: cddbd v1.5.2PL0 Copyright (c) Steve Scherf et al.
# Submitted via: audiograbber 1.83.01
#
DISCID=76095f0a
DTITLE=Siegel-Schwall Band - 953 West
DYEAR=1973
DGENRE=Blues
TTITLE0=I'd Like To Spend Some Time Alone With You Tonight My Friend
TTITLE1=Traitor From Decatur
TTITLE2=Good Woman
TTITLE3=Just Another Song About The Country Sung By A City Boy
TTITLE4=When I've Been Drinkin'
TTITLE5=Old Time Shimmy
TTITLE6=Off To Denver
TTITLE7=I Think It Was The Wine
TTITLE8=Reed Zone (Psychiatric Institution Blues)
TTITLE9=Blow Out The Candle
EXTD=
EXTT0=
EXTT1=
EXTT2=
EXTT3=
EXTT4=
EXTT5=
EXTT6=
EXTT7=
EXTT8=
EXTT9=
PLAYORDER=
